<svg width="291" height="76" viewBox="0 0 291 76" fill="none" xmlns="http://www.w3.org/2000/svg">
<path d="M28.5 75H4.5C2.29086 75 0.5 73.2091 0.5 71V52H13V63.5H28.5V75Z" fill="#0E1A2B" stroke="#0E1A2B"/>
<path d="M78 32.5H50V43H66V63H44.5V48.5H33.5V67C33.5 71.4183 37.0817 75 41.5 75H78V32.5Z" fill="#0E5FCB" stroke="#0E5FCB"/>
<path d="M74 0.5H50V12H66.5V24H78V4.5C78 2.29086 76.2091 0.5 74 0.5Z" fill="#0E1A2B" stroke="#0E1A2B"/>
<path d="M12.5 0.5H1.5V34C1.5 38.4183 5.08172 42 9.5 42H44.5V0.5H33.5V31.5H12.5V0.5Z" fill="#0E5FCB" stroke="#0E5FCB"/>
<path d="M94.888 47.75V41.002L88.224 28.15H92.34L96.484 36.55H96.988L101.132 28.15H105.248L98.584 41.002V47.75H94.888ZM107.713 48.142C106.724 48.142 105.837 47.974 105.053 47.638C104.269 47.2833 103.644 46.7793 103.177 46.126C102.729 45.454 102.505 44.642 102.505 43.69C102.505 42.738 102.729 41.9447 103.177 41.31C103.644 40.6567 104.278 40.1713 105.081 39.854C105.902 39.518 106.836 39.35 107.881 39.35H111.689V38.566C111.689 37.9127 111.484 37.3807 111.073 36.97C110.662 36.5407 110.009 36.326 109.113 36.326C108.236 36.326 107.582 36.5313 107.153 36.942C106.724 37.334 106.444 37.8473 106.313 38.482L103.065 37.39C103.289 36.6807 103.644 36.0367 104.129 35.458C104.633 34.8607 105.296 34.3847 106.117 34.03C106.957 33.6567 107.974 33.47 109.169 33.47C110.998 33.47 112.445 33.9273 113.509 34.842C114.573 35.7567 115.105 37.082 115.105 38.818V43.998C115.105 44.558 115.366 44.838 115.889 44.838H117.009V47.75H114.657C113.966 47.75 113.397 47.582 112.949 47.246C112.501 46.91 112.277 46.462 112.277 45.902V45.874H111.745C111.67 46.098 111.502 46.3967 111.241 46.77C110.98 47.1247 110.569 47.442 110.009 47.722C109.449 48.002 108.684 48.142 107.713 48.142ZM108.329 45.286C109.318 45.286 110.121 45.0153 110.737 44.474C111.372 43.914 111.689 43.1767 111.689 42.262V41.982H108.133C107.48 41.982 106.966 42.122 106.593 42.402C106.22 42.682 106.033 43.074 106.033 43.578C106.033 44.082 106.229 44.4927 106.621 44.81C107.013 45.1273 107.582 45.286 108.329 45.286ZM117.909 47.75V33.862H121.381V35.374H121.885C122.127 34.9073 122.529 34.506 123.089 34.17C123.649 33.8153 124.386 33.638 125.301 33.638C126.29 33.638 127.083 33.834 127.681 34.226C128.278 34.5993 128.735 35.094 129.053 35.71H129.557C129.874 35.1127 130.322 34.618 130.901 34.226C131.479 33.834 132.301 33.638 133.365 33.638C134.223 33.638 134.998 33.8247 135.689 34.198C136.398 34.5527 136.958 35.1033 137.369 35.85C137.798 36.578 138.013 37.502 138.013 38.622V47.75H134.485V38.874C134.485 38.1087 134.289 37.5393 133.897 37.166C133.505 36.774 132.954 36.578 132.245 36.578C131.442 36.578 130.817 36.8393 130.369 37.362C129.939 37.866 129.725 38.594 129.725 39.546V47.75H126.197V38.874C126.197 38.1087 126.001 37.5393 125.609 37.166C125.217 36.774 124.666 36.578 123.957 36.578C123.154 36.578 122.529 36.8393 122.081 37.362C121.651 37.866 121.437 38.594 121.437 39.546V47.75H117.909ZM140.127 47.75V33.862H143.655V47.75H140.127ZM141.891 32.238C141.256 32.238 140.715 32.0327 140.267 31.622C139.838 31.2113 139.623 30.67 139.623 29.998C139.623 29.326 139.838 28.7847 140.267 28.374C140.715 27.9633 141.256 27.758 141.891 27.758C142.544 27.758 143.086 27.9633 143.515 28.374C143.944 28.7847 144.159 29.326 144.159 29.998C144.159 30.67 143.944 31.2113 143.515 31.622C143.086 32.0327 142.544 32.238 141.891 32.238ZM145.885 47.75V33.862H149.357V35.682H149.861C150.085 35.1967 150.505 34.7393 151.121 34.31C151.737 33.862 152.67 33.638 153.921 33.638C155.003 33.638 155.946 33.89 156.749 34.394C157.57 34.8793 158.205 35.5607 158.653 36.438C159.101 37.2967 159.325 38.3047 159.325 39.462V47.75H155.797V39.742C155.797 38.6967 155.535 37.9127 155.013 37.39C154.509 36.8673 153.781 36.606 152.829 36.606C151.746 36.606 150.906 36.97 150.309 37.698C149.711 38.4073 149.413 39.406 149.413 40.694V47.75H145.885ZM173.552 48.142C172.208 48.142 170.985 47.8433 169.884 47.246C168.801 46.63 167.933 45.7433 167.28 44.586C166.645 43.41 166.328 41.982 166.328 40.302V35.598C166.328 33.078 167.037 31.146 168.456 29.802C169.874 28.4393 171.797 27.758 174.224 27.758C176.632 27.758 178.489 28.402 179.796 29.69C181.121 30.9593 181.784 32.686 181.784 34.87V34.982H178.144V34.758C178.144 34.0673 177.994 33.442 177.696 32.882C177.416 32.322 176.986 31.8833 176.408 31.566C175.829 31.23 175.101 31.062 174.224 31.062C172.917 31.062 171.89 31.4633 171.144 32.266C170.397 33.0687 170.024 34.1607 170.024 35.542V40.358C170.024 41.7207 170.397 42.822 171.144 43.662C171.89 44.4833 172.936 44.894 174.28 44.894C175.624 44.894 176.604 44.5393 177.22 43.83C177.836 43.1207 178.144 42.2247 178.144 41.142V40.862H173.496V37.726H181.784V47.75H178.368V45.874H177.864C177.733 46.1913 177.518 46.5273 177.22 46.882C176.94 47.2367 176.51 47.5353 175.932 47.778C175.353 48.0207 174.56 48.142 173.552 48.142ZM183.747 47.75V28.15H187.275V47.75H183.747ZM196.112 48.142C194.731 48.142 193.49 47.862 192.388 47.302C191.287 46.742 190.419 45.93 189.784 44.866C189.15 43.802 188.832 42.5233 188.832 41.03V40.582C188.832 39.0887 189.15 37.81 189.784 36.746C190.419 35.682 191.287 34.87 192.388 34.31C193.49 33.75 194.731 33.47 196.112 33.47C197.494 33.47 198.735 33.75 199.836 34.31C200.938 34.87 201.806 35.682 202.44 36.746C203.075 37.81 203.392 39.0887 203.392 40.582V41.03C203.392 42.5233 203.075 43.802 202.44 44.866C201.806 45.93 200.938 46.742 199.836 47.302C198.735 47.862 197.494 48.142 196.112 48.142ZM196.112 45.006C197.195 45.006 198.091 44.6607 198.8 43.97C199.51 43.2607 199.864 42.2527 199.864 40.946V40.666C199.864 39.3593 199.51 38.3607 198.8 37.67C198.11 36.9607 197.214 36.606 196.112 36.606C195.03 36.606 194.134 36.9607 193.424 37.67C192.715 38.3607 192.36 39.3593 192.36 40.666V40.946C192.36 42.2527 192.715 43.2607 193.424 43.97C194.134 44.6607 195.03 45.006 196.112 45.006ZM213.313 48.142C212.062 48.142 211.101 47.9273 210.429 47.498C209.757 47.0687 209.262 46.5927 208.945 46.07H208.441V47.75H204.969V28.15H208.497V35.458H209.001C209.206 35.122 209.477 34.8047 209.813 34.506C210.168 34.2073 210.625 33.9647 211.185 33.778C211.764 33.5727 212.473 33.47 213.313 33.47C214.433 33.47 215.469 33.75 216.421 34.31C217.373 34.8513 218.138 35.654 218.717 36.718C219.296 37.782 219.585 39.07 219.585 40.582V41.03C219.585 42.542 219.296 43.83 218.717 44.894C218.138 45.958 217.373 46.77 216.421 47.33C215.469 47.8713 214.433 48.142 213.313 48.142ZM212.249 45.062C213.332 45.062 214.237 44.7167 214.965 44.026C215.693 43.3167 216.057 42.29 216.057 40.946V40.666C216.057 39.322 215.693 38.3047 214.965 37.614C214.256 36.9047 213.35 36.55 212.249 36.55C211.166 36.55 210.261 36.9047 209.533 37.614C208.805 38.3047 208.441 39.322 208.441 40.666V40.946C208.441 42.29 208.805 43.3167 209.533 44.026C210.261 44.7167 211.166 45.062 212.249 45.062ZM225.456 48.142C224.467 48.142 223.58 47.974 222.796 47.638C222.012 47.2833 221.387 46.7793 220.92 46.126C220.472 45.454 220.248 44.642 220.248 43.69C220.248 42.738 220.472 41.9447 220.92 41.31C221.387 40.6567 222.022 40.1713 222.824 39.854C223.646 39.518 224.579 39.35 225.624 39.35H229.432V38.566C229.432 37.9127 229.227 37.3807 228.816 36.97C228.406 36.5407 227.752 36.326 226.856 36.326C225.979 36.326 225.326 36.5313 224.896 36.942C224.467 37.334 224.187 37.8473 224.056 38.482L220.808 37.39C221.032 36.6807 221.387 36.0367 221.872 35.458C222.376 34.8607 223.039 34.3847 223.86 34.03C224.7 33.6567 225.718 33.47 226.912 33.47C228.742 33.47 230.188 33.9273 231.252 34.842C232.316 35.7567 232.848 37.082 232.848 38.818V43.998C232.848 44.558 233.11 44.838 233.632 44.838H234.752V47.75H232.4C231.71 47.75 231.14 47.582 230.692 47.246C230.244 46.91 230.02 46.462 230.02 45.902V45.874H229.488C229.414 46.098 229.246 46.3967 228.984 46.77C228.723 47.1247 228.312 47.442 227.752 47.722C227.192 48.002 226.427 48.142 225.456 48.142ZM226.072 45.286C227.062 45.286 227.864 45.0153 228.48 44.474C229.115 43.914 229.432 43.1767 229.432 42.262V41.982H225.876C225.223 41.982 224.71 42.122 224.336 42.402C223.963 42.682 223.776 43.074 223.776 43.578C223.776 44.082 223.972 44.4927 224.364 44.81C224.756 45.1273 225.326 45.286 226.072 45.286ZM235.652 47.75V28.15H239.18V47.75H235.652ZM246.727 47.75V28.15H259.047V31.51H250.423V36.242H258.375V39.602H250.423V47.75H246.727ZM259.444 47.75V43.046L269.132 31.902V31.454H259.724V28.15H272.996V32.854L263.308 43.998V44.446H273.052V47.75H259.444ZM281.576 48.142C279.15 48.142 277.227 47.47 275.808 46.126C274.39 44.7633 273.68 42.822 273.68 40.302V35.598C273.68 33.078 274.39 31.146 275.808 29.802C277.227 28.4393 279.15 27.758 281.576 27.758C283.984 27.758 285.842 28.4207 287.148 29.746C288.474 31.0527 289.136 32.854 289.136 35.15V35.318H285.496V35.038C285.496 33.8807 285.17 32.9287 284.516 32.182C283.882 31.4353 282.902 31.062 281.576 31.062C280.27 31.062 279.243 31.4633 278.496 32.266C277.75 33.0687 277.376 34.1607 277.376 35.542V40.358C277.376 41.7207 277.75 42.8127 278.496 43.634C279.243 44.4367 280.27 44.838 281.576 44.838C282.902 44.838 283.882 44.4647 284.516 43.718C285.17 42.9527 285.496 42.0007 285.496 40.862V40.358H289.136V40.75C289.136 43.046 288.474 44.8567 287.148 46.182C285.842 47.4887 283.984 48.142 281.576 48.142Z" fill="#0E1A2B"/>
</svg>
