<svg width="449" height="120" viewBox="0 0 449 120" fill="none" xmlns="http://www.w3.org/2000/svg">
<path d="M29.52 102V73.08L0.96 18H18.6L36.36 54H38.52L56.28 18H73.92L45.36 73.08V102H29.52ZM101.244 103.68C95.4844 103.68 90.2444 102.4 85.5244 99.84C80.8844 97.2 77.1644 93.4 74.3644 88.44C71.6444 83.4 70.2844 77.28 70.2844 70.08V49.92C70.2844 39.12 73.3244 30.84 79.4044 25.08C85.4844 19.24 93.7244 16.32 104.124 16.32C114.444 16.32 122.404 19.08 128.004 24.6C133.684 30.04 136.524 37.44 136.524 46.8V47.28H120.924V46.32C120.924 43.36 120.284 40.68 119.004 38.28C117.804 35.88 115.964 34 113.484 32.64C111.004 31.2 107.884 30.48 104.124 30.48C98.5244 30.48 94.1244 32.2 90.9244 35.64C87.7244 39.08 86.1244 43.76 86.1244 49.68V70.32C86.1244 76.16 87.7244 80.88 90.9244 84.48C94.1244 88 98.6044 89.76 104.364 89.76C110.124 89.76 114.324 88.24 116.964 85.2C119.604 82.16 120.924 78.32 120.924 73.68V72.48H101.004V59.04H136.524V102H121.884V93.96H119.724C119.164 95.32 118.244 96.76 116.964 98.28C115.764 99.8 113.924 101.08 111.444 102.12C108.964 103.16 105.564 103.68 101.244 103.68Z" fill="#0E5FCB"/>
<path d="M169.84 108V98.36L160.32 80H166.2L172.12 92H172.84L178.76 80H184.64L175.12 98.36V108H169.84ZM188.162 108.56C186.748 108.56 185.482 108.32 184.362 107.84C183.242 107.333 182.348 106.613 181.682 105.68C181.042 104.72 180.722 103.56 180.722 102.2C180.722 100.84 181.042 99.7067 181.682 98.8C182.348 97.8667 183.255 97.1733 184.402 96.72C185.575 96.24 186.908 96 188.402 96H193.842V94.88C193.842 93.9467 193.548 93.1867 192.962 92.6C192.375 91.9867 191.442 91.68 190.162 91.68C188.908 91.68 187.975 91.9733 187.362 92.56C186.748 93.12 186.348 93.8533 186.162 94.76L181.522 93.2C181.842 92.1867 182.348 91.2667 183.042 90.44C183.762 89.5867 184.708 88.9067 185.882 88.4C187.082 87.8667 188.535 87.6 190.242 87.6C192.855 87.6 194.922 88.2533 196.442 89.56C197.962 90.8667 198.722 92.76 198.722 95.24V102.64C198.722 103.44 199.095 103.84 199.842 103.84H201.442V108H198.082C197.095 108 196.282 107.76 195.642 107.28C195.002 106.8 194.682 106.16 194.682 105.36V105.32H193.922C193.815 105.64 193.575 106.067 193.202 106.6C192.828 107.107 192.242 107.56 191.442 107.96C190.642 108.36 189.548 108.56 188.162 108.56ZM189.042 104.48C190.455 104.48 191.602 104.093 192.482 103.32C193.388 102.52 193.842 101.467 193.842 100.16V99.76H188.762C187.828 99.76 187.095 99.96 186.562 100.36C186.028 100.76 185.762 101.32 185.762 102.04C185.762 102.76 186.042 103.347 186.602 103.8C187.162 104.253 187.975 104.48 189.042 104.48ZM202.727 108V88.16H207.687V90.32H208.407C208.753 89.6533 209.327 89.08 210.127 88.6C210.927 88.0933 211.98 87.84 213.287 87.84C214.7 87.84 215.833 88.12 216.687 88.68C217.54 89.2133 218.193 89.92 218.647 90.8H219.367C219.82 89.9467 220.46 89.24 221.287 88.68C222.113 88.12 223.287 87.84 224.807 87.84C226.033 87.84 227.14 88.1067 228.127 88.64C229.14 89.1467 229.94 89.9333 230.527 91C231.14 92.04 231.447 93.36 231.447 94.96V108H226.407V95.32C226.407 94.2267 226.127 93.4133 225.567 92.88C225.007 92.32 224.22 92.04 223.207 92.04C222.06 92.04 221.167 92.4133 220.527 93.16C219.913 93.88 219.607 94.92 219.607 96.28V108H214.567V95.32C214.567 94.2267 214.287 93.4133 213.727 92.88C213.167 92.32 212.38 92.04 211.367 92.04C210.22 92.04 209.327 92.4133 208.687 93.16C208.073 93.88 207.767 94.92 207.767 96.28V108H202.727ZM234.467 108V88.16H239.507V108H234.467ZM236.987 85.84C236.081 85.84 235.307 85.5467 234.667 84.96C234.054 84.3733 233.747 83.6 233.747 82.64C233.747 81.68 234.054 80.9067 234.667 80.32C235.307 79.7333 236.081 79.44 236.987 79.44C237.921 79.44 238.694 79.7333 239.307 80.32C239.921 80.9067 240.227 81.68 240.227 82.64C240.227 83.6 239.921 84.3733 239.307 84.96C238.694 85.5467 237.921 85.84 236.987 85.84ZM242.692 108V88.16H247.652V90.76H248.372C248.692 90.0667 249.292 89.4133 250.172 88.8C251.052 88.16 252.386 87.84 254.172 87.84C255.719 87.84 257.066 88.2 258.212 88.92C259.386 89.6133 260.292 90.5867 260.932 91.84C261.572 93.0667 261.892 94.5067 261.892 96.16V108H256.852V96.56C256.852 95.0667 256.479 93.9467 255.732 93.2C255.012 92.4533 253.972 92.08 252.612 92.08C251.066 92.08 249.866 92.6 249.012 93.64C248.159 94.6533 247.732 96.08 247.732 97.92V108H242.692ZM282.217 108.56C280.297 108.56 278.55 108.133 276.977 107.28C275.43 106.4 274.19 105.133 273.257 103.48C272.35 101.8 271.897 99.76 271.897 97.36V90.64C271.897 87.04 272.91 84.28 274.937 82.36C276.964 80.4133 279.71 79.44 283.177 79.44C286.617 79.44 289.27 80.36 291.137 82.2C293.03 84.0133 293.977 86.48 293.977 89.6V89.76H288.777V89.44C288.777 88.4533 288.564 87.56 288.137 86.76C287.737 85.96 287.124 85.3333 286.297 84.88C285.47 84.4 284.43 84.16 283.177 84.16C281.31 84.16 279.844 84.7333 278.777 85.88C277.71 87.0267 277.177 88.5867 277.177 90.56V97.44C277.177 99.3867 277.71 100.96 278.777 102.16C279.844 103.333 281.337 103.92 283.257 103.92C285.177 103.92 286.577 103.413 287.457 102.4C288.337 101.387 288.777 100.107 288.777 98.56V98.16H282.137V93.68H293.977V108H289.097V105.32H288.377C288.19 105.773 287.884 106.253 287.457 106.76C287.057 107.267 286.444 107.693 285.617 108.04C284.79 108.387 283.657 108.56 282.217 108.56ZM296.781 108V80H301.821V108H296.781ZM314.446 108.56C312.473 108.56 310.7 108.16 309.126 107.36C307.553 106.56 306.313 105.4 305.406 103.88C304.5 102.36 304.046 100.533 304.046 98.4V97.76C304.046 95.6267 304.5 93.8 305.406 92.28C306.313 90.76 307.553 89.6 309.126 88.8C310.7 88 312.473 87.6 314.446 87.6C316.42 87.6 318.193 88 319.766 88.8C321.34 89.6 322.58 90.76 323.486 92.28C324.393 93.8 324.846 95.6267 324.846 97.76V98.4C324.846 100.533 324.393 102.36 323.486 103.88C322.58 105.4 321.34 106.56 319.766 107.36C318.193 108.16 316.42 108.56 314.446 108.56ZM314.446 104.08C315.993 104.08 317.273 103.587 318.286 102.6C319.3 101.587 319.806 100.147 319.806 98.28V97.88C319.806 96.0133 319.3 94.5867 318.286 93.6C317.3 92.5867 316.02 92.08 314.446 92.08C312.9 92.08 311.62 92.5867 310.606 93.6C309.593 94.5867 309.086 96.0133 309.086 97.88V98.28C309.086 100.147 309.593 101.587 310.606 102.6C311.62 103.587 312.9 104.08 314.446 104.08ZM339.018 108.56C337.232 108.56 335.858 108.253 334.898 107.64C333.938 107.027 333.232 106.347 332.778 105.6H332.058V108H327.098V80H332.138V90.44H332.858C333.152 89.96 333.538 89.5067 334.018 89.08C334.525 88.6533 335.178 88.3067 335.978 88.04C336.805 87.7467 337.818 87.6 339.018 87.6C340.618 87.6 342.098 88 343.458 88.8C344.818 89.5733 345.912 90.72 346.738 92.24C347.565 93.76 347.978 95.6 347.978 97.76V98.4C347.978 100.56 347.565 102.4 346.738 103.92C345.912 105.44 344.818 106.6 343.458 107.4C342.098 108.173 340.618 108.56 339.018 108.56ZM337.498 104.16C339.045 104.16 340.338 103.667 341.378 102.68C342.418 101.667 342.938 100.2 342.938 98.28V97.88C342.938 95.96 342.418 94.5067 341.378 93.52C340.365 92.5067 339.072 92 337.498 92C335.952 92 334.658 92.5067 333.618 93.52C332.578 94.5067 332.058 95.96 332.058 97.88V98.28C332.058 100.2 332.578 101.667 333.618 102.68C334.658 103.667 335.952 104.16 337.498 104.16ZM356.366 108.56C354.953 108.56 353.686 108.32 352.566 107.84C351.446 107.333 350.553 106.613 349.886 105.68C349.246 104.72 348.926 103.56 348.926 102.2C348.926 100.84 349.246 99.7067 349.886 98.8C350.553 97.8667 351.46 97.1733 352.606 96.72C353.78 96.24 355.113 96 356.606 96H362.046V94.88C362.046 93.9467 361.753 93.1867 361.166 92.6C360.58 91.9867 359.646 91.68 358.366 91.68C357.113 91.68 356.18 91.9733 355.566 92.56C354.953 93.12 354.553 93.8533 354.366 94.76L349.726 93.2C350.046 92.1867 350.553 91.2667 351.246 90.44C351.966 89.5867 352.913 88.9067 354.086 88.4C355.286 87.8667 356.74 87.6 358.446 87.6C361.06 87.6 363.126 88.2533 364.646 89.56C366.166 90.8667 366.926 92.76 366.926 95.24V102.64C366.926 103.44 367.3 103.84 368.046 103.84H369.646V108H366.286C365.3 108 364.486 107.76 363.846 107.28C363.206 106.8 362.886 106.16 362.886 105.36V105.32H362.126C362.02 105.64 361.78 106.067 361.406 106.6C361.033 107.107 360.446 107.56 359.646 107.96C358.846 108.36 357.753 108.56 356.366 108.56ZM357.246 104.48C358.66 104.48 359.806 104.093 360.686 103.32C361.593 102.52 362.046 101.467 362.046 100.16V99.76H356.966C356.033 99.76 355.3 99.96 354.766 100.36C354.233 100.76 353.966 101.32 353.966 102.04C353.966 102.76 354.246 103.347 354.806 103.8C355.366 104.253 356.18 104.48 357.246 104.48ZM370.931 108V80H375.971V108H370.931ZM386.753 108V80H404.353V84.8H392.033V91.56H403.393V96.36H392.033V108H386.753ZM404.92 108V101.28L418.76 85.36V84.72H405.32V80H424.28V86.72L410.44 102.64V103.28H424.36V108H404.92ZM436.538 108.56C433.071 108.56 430.324 107.6 428.298 105.68C426.271 103.733 425.258 100.96 425.258 97.36V90.64C425.258 87.04 426.271 84.28 428.298 82.36C430.324 80.4133 433.071 79.44 436.538 79.44C439.978 79.44 442.631 80.3867 444.498 82.28C446.391 84.1467 447.338 86.72 447.338 90V90.24H442.138V89.84C442.138 88.1867 441.671 86.8267 440.738 85.76C439.831 84.6933 438.431 84.16 436.538 84.16C434.671 84.16 433.204 84.7333 432.138 85.88C431.071 87.0267 430.538 88.5867 430.538 90.56V97.44C430.538 99.3867 431.071 100.947 432.138 102.12C433.204 103.267 434.671 103.84 436.538 103.84C438.431 103.84 439.831 103.307 440.738 102.24C441.671 101.147 442.138 99.7867 442.138 98.16V97.44H447.338V98C447.338 101.28 446.391 103.867 444.498 105.76C442.631 107.627 439.978 108.56 436.538 108.56Z" fill="#0E1A2B"/>
</svg>
