<svg width="344" height="285" viewBox="0 0 344 285" fill="none" xmlns="http://www.w3.org/2000/svg">
<g clip-path="url(#clip0_2_33)">
<path d="M97.48 0.431987H31.816L129.448 94.176L162.28 63.504L97.48 0.431987Z" fill="#0E1A2B"/>
<path d="M244.792 -9.15527e-06L135.496 107.568V219.024H248.248L311.752 160.704V86.4H246.088L205.48 126.144L268.12 127.008V141.696L229.24 177.12H179.56V126.144L312.184 -9.15527e-06H244.792Z" fill="#0E5FCB" stroke="#0E5FCB" stroke-width="0.864"/>
<path d="M9.84 272.024V262.384L0.32 244.024H6.2L12.12 256.024H12.84L18.76 244.024H24.64L15.12 262.384V272.024H9.84ZM21.9903 272.024L29.3503 244.024H38.5503L45.9103 272.024H40.4703L38.9503 265.864H28.9503L27.4303 272.024H21.9903ZM30.1903 260.984H37.7103L34.3103 247.344H33.5903L30.1903 260.984ZM48.4619 272.024V244.024H58.2619L63.1019 268.424H63.8219L68.6619 244.024H78.4619V272.024H73.3419V247.904H72.6219L67.8219 272.024H59.1019L54.3019 247.904H53.5819V272.024H48.4619ZM82.9353 272.024V244.024H88.2153V272.024H82.9353ZM92.6822 272.024V244.024H102.722L108.282 268.424H109.002V244.024H114.202V272.024H104.162L98.6022 247.624H97.8822V272.024H92.6822ZM137.715 272.584C135.795 272.584 134.049 272.157 132.475 271.304C130.929 270.424 129.689 269.157 128.755 267.504C127.849 265.824 127.395 263.784 127.395 261.384V254.664C127.395 251.064 128.409 248.304 130.435 246.384C132.462 244.437 135.209 243.464 138.675 243.464C142.115 243.464 144.769 244.384 146.635 246.224C148.529 248.037 149.475 250.504 149.475 253.624V253.784H144.275V253.464C144.275 252.477 144.062 251.584 143.635 250.784C143.235 249.984 142.622 249.357 141.795 248.904C140.969 248.424 139.929 248.184 138.675 248.184C136.809 248.184 135.342 248.757 134.275 249.904C133.209 251.051 132.675 252.611 132.675 254.584V261.464C132.675 263.411 133.209 264.984 134.275 266.184C135.342 267.357 136.835 267.944 138.755 267.944C140.675 267.944 142.075 267.437 142.955 266.424C143.835 265.411 144.275 264.131 144.275 262.584V262.184H137.635V257.704H149.475V272.024H144.595V269.344H143.875C143.689 269.797 143.382 270.277 142.955 270.784C142.555 271.291 141.942 271.717 141.115 272.064C140.289 272.411 139.155 272.584 137.715 272.584ZM153.72 272.024V244.024H159V267.224H171.8V272.024H153.72ZM184.542 272.584C181.022 272.584 178.222 271.624 176.142 269.704C174.062 267.757 173.022 264.984 173.022 261.384V254.664C173.022 251.064 174.062 248.304 176.142 246.384C178.222 244.437 181.022 243.464 184.542 243.464C188.062 243.464 190.862 244.437 192.942 246.384C195.022 248.304 196.062 251.064 196.062 254.664V261.384C196.062 264.984 195.022 267.757 192.942 269.704C190.862 271.624 188.062 272.584 184.542 272.584ZM184.542 267.864C186.515 267.864 188.049 267.291 189.142 266.144C190.235 264.997 190.782 263.464 190.782 261.544V254.504C190.782 252.584 190.235 251.051 189.142 249.904C188.049 248.757 186.515 248.184 184.542 248.184C182.595 248.184 181.062 248.757 179.942 249.904C178.849 251.051 178.302 252.584 178.302 254.504V261.544C178.302 263.464 178.849 264.997 179.942 266.144C181.062 267.291 182.595 267.864 184.542 267.864ZM198.195 272.024V267.384H201.875V248.664H198.195V244.024H212.595C214.301 244.024 215.781 244.317 217.035 244.904C218.315 245.464 219.301 246.277 219.995 247.344C220.715 248.384 221.075 249.637 221.075 251.104V251.504C221.075 252.784 220.835 253.837 220.355 254.664C219.875 255.464 219.301 256.091 218.635 256.544C217.995 256.971 217.381 257.277 216.795 257.464V258.184C217.381 258.344 218.021 258.651 218.715 259.104C219.408 259.531 219.995 260.157 220.475 260.984C220.981 261.811 221.235 262.891 221.235 264.224V264.624C221.235 266.171 220.875 267.504 220.155 268.624C219.435 269.717 218.435 270.557 217.155 271.144C215.901 271.731 214.435 272.024 212.755 272.024H198.195ZM207.155 267.224H212.115C213.261 267.224 214.181 266.944 214.875 266.384C215.595 265.824 215.955 265.024 215.955 263.984V263.584C215.955 262.544 215.608 261.744 214.915 261.184C214.221 260.624 213.288 260.344 212.115 260.344H207.155V267.224ZM207.155 255.544H212.035C213.128 255.544 214.021 255.264 214.715 254.704C215.435 254.144 215.795 253.371 215.795 252.384V251.984C215.795 250.971 215.448 250.197 214.755 249.664C214.061 249.104 213.155 248.824 212.035 248.824H207.155V255.544ZM222.603 272.024L229.963 244.024H239.163L246.523 272.024H241.083L239.563 265.864H229.563L228.043 272.024H222.603ZM230.803 260.984H238.323L234.923 247.344H234.203L230.803 260.984ZM249.074 272.024V244.024H254.354V267.224H267.154V272.024H249.074ZM278.099 272.024V244.024H295.699V248.824H283.379V255.584H294.739V260.384H283.379V272.024H278.099ZM297.867 272.024V265.304L311.707 249.384V248.744H298.267V244.024H317.227V250.744L303.387 266.664V267.304H317.307V272.024H297.867ZM331.085 272.584C327.618 272.584 324.871 271.624 322.845 269.704C320.818 267.757 319.805 264.984 319.805 261.384V254.664C319.805 251.064 320.818 248.304 322.845 246.384C324.871 244.437 327.618 243.464 331.085 243.464C334.525 243.464 337.178 244.411 339.045 246.304C340.938 248.171 341.885 250.744 341.885 254.024V254.264H336.685V253.864C336.685 252.211 336.218 250.851 335.285 249.784C334.378 248.717 332.978 248.184 331.085 248.184C329.218 248.184 327.751 248.757 326.685 249.904C325.618 251.051 325.085 252.611 325.085 254.584V261.464C325.085 263.411 325.618 264.971 326.685 266.144C327.751 267.291 329.218 267.864 331.085 267.864C332.978 267.864 334.378 267.331 335.285 266.264C336.218 265.171 336.685 263.811 336.685 262.184V261.464H341.885V262.024C341.885 265.304 340.938 267.891 339.045 269.784C337.178 271.651 334.525 272.584 331.085 272.584Z" fill="#0E1A2B"/>
</g>
<defs>
<clipPath id="clip0_2_33">
<rect width="344" height="284.024" fill="white"/>
</clipPath>
</defs>
</svg>
